# Blender v2.80 (sub 75) OBJ File: 'fspy.blend'
# www.blender.org
mtllib stair.mtl
o Plane
v -1.756013 -1.390656 1.382588
v 1.185179 -1.364350 0.642466
v -1.691787 -1.364350 -0.747770
v 1.180442 -1.364350 -1.470538
v -1.691787 -1.157573 -0.747770
v 1.180442 -1.157573 -1.470538
v -1.673116 -1.157573 -2.645318
v 1.064373 -1.157573 -3.334180
v -1.673116 -0.984298 -2.645318
v 1.064373 -1.024251 -3.334180
v -1.615475 -0.984298 -4.313102
v 1.035396 -1.024251 -4.980167
v -1.615475 -0.764558 -4.313102
v 1.035396 -0.852862 -4.980167
v -1.032983 -0.797104 -5.733207
v 0.795763 -0.852862 -6.193392
v -1.756013 -1.604731 1.382588
v 1.207798 -1.520302 0.636774
v -1.795252 -1.604731 3.145986
v 1.207798 -1.520302 2.390298
v -1.032983 -0.671388 -5.733207
v 0.795763 -0.704465 -6.193392
v -1.130712 -0.671388 -7.062586
v 0.893492 -0.704465 -7.571957
vt 1.000000 0.000000
vt 0.000000 1.000000
vt 0.000000 0.000000
vt 1.000000 1.000000
vt 0.000000 1.000000
vt 1.000000 1.000000
vt 0.000000 1.000000
vt 1.000000 1.000000
vt 0.000000 1.000000
vt 0.000000 1.000000
vt 1.000000 1.000000
vt 0.000000 1.000000
vt 0.000000 1.000000
vt 0.000000 0.000000
vt 1.000000 0.000000
vt 1.000000 0.000000
vt 1.000000 1.000000
vt 0.000000 1.000000
vt 0.000000 1.000000
vt 1.000000 1.000000
vt 1.000000 1.000000
vt 1.000000 1.000000
vt 0.000000 0.000000
vt 1.000000 1.000000
vn -0.0059 0.9999 0.0122
vn 0.2440 0.0000 0.9698
vn 0.0000 1.0000 0.0000
vn 0.0147 0.9999 0.0005
vn 0.0307 0.9995 -0.0103
vn -0.0285 0.9996 0.0000
vn 0.0178 0.9998 -0.0013
vn 0.0150 0.9999 -0.0003
vn 0.0290 0.9996 -0.0057
vn -0.0283 0.9996 -0.0006
vn 0.0166 0.9999 0.0012
usemtl None
s off
f 2/1/1 3/2/1 1/3/1
f 4/4/2 5/5/2 3/2/2
f 6/6/3 7/7/3 5/5/3
f 7/7/2 10/8/2 9/9/2
f 10/8/4 11/10/4 9/9/4
f 11/10/2 14/11/2 13/12/2
f 14/11/5 15/13/5 13/12/5
f 2/1/2 17/14/2 18/15/2
f 17/14/6 20/16/6 18/15/6
f 15/13/2 22/17/2 21/18/2
f 22/17/7 23/19/7 21/18/7
f 2/1/3 4/4/3 3/2/3
f 4/4/2 6/6/2 5/5/2
f 6/6/3 8/20/3 7/7/3
f 7/7/2 8/20/2 10/8/2
f 10/8/8 12/21/8 11/10/8
f 11/10/2 12/21/2 14/11/2
f 14/11/9 16/22/9 15/13/9
f 2/1/2 1/3/2 17/14/2
f 17/14/10 19/23/10 20/16/10
f 15/13/2 16/22/2 22/17/2
f 22/17/11 24/24/11 23/19/11
